HIERARCHY
ROOT hip
{
	OFFSET 0.000000 0.000000 0.000000 
	CHANNELS 6 Xposition Yposition Zposition Xrotation Zrotation Yrotation
	JOINT abdomen
	{
		OFFSET 0.000000 3.402643 0.000000 
		CHANNELS 3 Xrotation Zrotation Yrotation
		JOINT chest
		{
			OFFSET 0.000000 8.438565 -0.680529 
			CHANNELS 3 Xrotation Zrotation Yrotation
			JOINT neck
			{
				OFFSET 0.000000 10.207942 -0.272212 
				CHANNELS 3 Xrotation Zrotation Yrotation
				JOINT head
				{
					OFFSET 0.000000 3.130431 0.000000 
					CHANNELS 3 Xrotation Zrotation Yrotation
					End Site
					{
						OFFSET 0.000000 3.130435 0.000000 
					}
				}
			}
			JOINT lCollar
			{
				OFFSET 3.470700 6.669187 -0.816635 
				CHANNELS 3 Yrotation Zrotation Xrotation
				JOINT lShldr
				{
					OFFSET 3.198488 0.000000 0.000000 
					CHANNELS 3 Zrotation Yrotation Xrotation
					JOINT lForeArm
					{
						OFFSET 10.139888 0.000000 0.000000 
						CHANNELS 3 Yrotation Zrotation Xrotation
						JOINT lHand
						{
							OFFSET 8.370511 0.000000 0.000000 
							CHANNELS 3 Zrotation Yrotation Xrotation
							End Site
							{
								OFFSET 4.083176 0.000000 0.000000 
							}
						}
					}
				}
			}
			JOINT rCollar
			{
				OFFSET -3.470700 6.669187 -0.816635 
				CHANNELS 3 Yrotation Zrotation Xrotation
				JOINT rShldr
				{
					OFFSET -3.198488 0.000000 0.000000 
					CHANNELS 3 Zrotation Yrotation Xrotation
					JOINT rForeArm
					{
						OFFSET -10.139888 0.000000 0.000000 
						CHANNELS 3 Yrotation Zrotation Xrotation
						JOINT rHand
						{
							OFFSET -8.370511 0.000000 0.000000 
							CHANNELS 3 Zrotation Yrotation Xrotation
							End Site
							{
								OFFSET -4.083176 0.000000 0.000000 
							}
						}
					}
				}
			}
		}
	}
	JOINT lThigh
	{
		OFFSET 5.308129 -1.633274 1.361059 
		CHANNELS 3 Xrotation Zrotation Yrotation
		JOINT lShin
		{
			OFFSET -2.041588 -20.007561 0.000000 
			CHANNELS 3 Xrotation Zrotation Yrotation
			JOINT lFoot
			{
				OFFSET 0.000000 -19.190928 -1.224953 
				CHANNELS 3 Xrotation Yrotation Zrotation
				End Site
				{
					OFFSET 0.000000 -2.449906 4.627600 
				}
			}
		}
	}
	JOINT rThigh
	{
		OFFSET -5.308129 -1.633274 1.361059 
		CHANNELS 3 Xrotation Zrotation Yrotation
		JOINT rShin
		{
			OFFSET 2.041588 -20.007561 0.000000 
			CHANNELS 3 Xrotation Zrotation Yrotation
			JOINT rFoot
			{
				OFFSET 0.000000 -19.190928 -1.224953 
				CHANNELS 3 Xrotation Yrotation Zrotation
				End Site
				{
					OFFSET 0.000000 -2.449906 4.627600 
				}
			}
		}
	}
}
MOTION
Frames: 10
Frame Time: 0.041667
0.049630 53.207321 0.483706 0.000000 0.000000 0.000000 -2.615381 1.144588 0.290577 -0.187266 2.345092 -0.684662 0.000000 0.000000 0.000000 0.054674 0.198387 0.000000 2.024021 -5.695030 -0.062997 -70.178864 9.982347 15.980616 -22.595251 -9.560909 0.144014 5.969490 -0.173112 0.175734 -3.091864 6.319968 -1.034029 69.945313 26.109922 8.067035 26.500120 7.504592 34.552063 -5.959850 -1.914177 -5.053590 -9.610882 3.498950 0.516529 20.100218 -2.915251 -1.744541 -10.844649 0.984049 -0.512137 -9.615574 -4.422011 0.089773 20.038725 2.858019 0.894159 -10.890485 -1.729959 1.065586 
0.145044 52.937737 0.727578 0.000000 0.000000 0.000000 -2.648832 1.086412 0.328082 -0.116015 2.221880 -0.485768 0.000000 0.000000 0.000000 0.153720 0.557775 0.000000 2.027826 -5.703579 -0.062355 -70.320457 9.988828 15.960716 -22.739540 -10.026785 0.137272 5.969490 -0.173112 0.175734 -2.362210 5.223399 -0.775454 69.322594 29.169493 6.825532 36.994091 6.328890 24.081865 -4.558600 2.152812 -5.006279 -10.622001 3.427496 0.472680 22.863714 -3.025523 -1.983311 -12.587568 1.122565 -0.227929 -10.613419 -4.701171 0.074533 22.869505 2.969269 1.165699 -12.726531 -1.731093 1.164394 
0.221281 52.600491 0.963754 0.000000 0.000000 0.000000 -2.818032 1.013290 0.346065 -0.085539 2.004479 -0.283630 0.000000 0.000000 0.000000 0.235404 0.854167 0.000000 2.030965 -5.710630 -0.061825 -70.437233 9.994173 15.944307 -22.858540 -10.410999 0.131711 5.969491 -0.173112 0.175734 -1.689792 4.259748 -0.508795 68.608963 32.433395 5.627872 48.115517 5.026405 13.304426 -3.077730 6.341774 -4.961610 -11.720410 3.459520 0.438963 25.825356 -3.202238 -2.207739 -14.444812 1.183511 0.003474 -11.743936 -4.914662 0.067815 25.891018 3.125307 1.418464 -14.622651 -1.680424 1.161408 
0.185826 52.009083 1.107671 0.000000 0.000000 0.000000 -3.614216 0.883713 0.264113 -0.262156 1.375117 -0.112222 0.000000 0.000000 0.000000 0.213055 0.773071 0.000000 2.030106 -5.708702 -0.061970 -70.405281 9.992712 15.948797 -22.825981 -10.305876 0.133233 5.969491 -0.173112 0.175734 -1.453368 4.170623 -0.264015 67.613876 35.946602 4.921693 59.748962 3.402437 3.506622 -1.547950 10.162506 -4.940208 -13.886648 3.695928 0.447602 30.877913 -3.377198 -2.631297 -17.304285 1.187670 0.161005 -13.918069 -5.037096 0.060767 30.913731 3.280794 1.861471 -17.470938 -1.677960 0.962847 
-0.053832 50.977039 1.074766 0.000000 0.000000 0.000000 -5.528620 0.656171 0.001815 -0.812182 0.016026 -0.005518 0.000000 0.000000 0.000000 0.000000 0.000000 0.000000 2.021920 -5.690310 -0.063351 -70.100700 9.978770 15.991600 -22.515600 -9.303740 0.147736 5.969490 -0.173112 0.175734 -2.031700 5.697630 -0.071073 66.146797 39.754101 5.154640 71.778999 1.262290 -4.024670 0.000030 13.124800 -4.962700 -17.183184 4.217469 0.435270 37.746391 -3.448846 -3.271019 -20.857241 1.171897 0.117885 -17.200672 -4.891029 0.091523 37.731262 3.329972 2.533170 -21.006176 -1.852028 0.437860 
-0.535157 49.466949 0.825780 0.000000 0.000000 0.000000 -8.808300 0.293069 -0.480227 -1.838012 -2.223107 0.015301 0.000000 0.000000 0.000000 -0.451483 -1.634195 0.000000 2.004822 -5.651801 -0.066274 -69.435036 9.952895 16.085773 -21.869020 -7.219757 0.178001 5.969489 -0.173112 0.175734 -3.591620 9.179628 0.041735 64.264191 44.079933 6.666269 83.662331 -1.532684 -8.392592 1.528694 14.887952 -5.048470 -21.828445 5.082380 0.303443 46.780167 -3.275575 -4.136462 -25.228504 1.171481 -0.274998 -21.807295 -4.383733 -0.013804 46.683544 3.140167 3.415204 -25.336527 -2.128909 -0.468651 
-1.075413 48.037750 0.502674 0.000000 0.000000 0.000000 -12.723601 -0.227528 -1.057347 -3.186355 -4.822769 -0.019761 0.000000 0.000000 0.000000 -1.033324 -3.717299 0.000000 1.984210 -5.604820 -0.070024 -68.461586 9.940504 16.226950 -21.099411 -4.760437 0.214325 5.969489 -0.173112 0.175734 -5.452266 13.344494 0.052781 63.010357 49.864456 9.363802 93.144272 -4.896958 -10.260440 2.973316 15.709278 -5.211932 -26.179838 5.900062 -0.157393 54.905346 -2.960874 -4.832293 -29.035397 1.313369 -0.851316 -26.057716 -3.796327 -0.492130 54.747726 2.747224 4.134667 -29.144114 -2.185232 -1.446887 
-1.436811 47.397476 0.292713 0.000000 0.000000 0.000000 -16.300680 -0.923644 -1.563865 -4.639995 -7.095986 -0.067906 0.000000 0.000000 0.000000 -1.598502 -5.691752 0.000000 1.967228 -5.564839 -0.073630 -67.269073 9.973228 16.406399 -20.487822 -2.855124 0.243886 5.969490 -0.173112 0.175734 -6.720845 16.517344 -0.057894 63.676544 58.227070 13.046367 97.542221 -8.688953 -10.681534 4.262364 15.995589 -5.466259 -28.203728 6.397983 -0.547718 58.446678 -2.794289 -5.095029 -30.576660 1.396991 -1.327033 -27.989155 -3.431317 -0.917436 58.237507 2.569307 4.427898 -30.667303 -2.104711 -2.090674 
-1.381569 48.254150 0.383161 0.000000 0.000000 0.000000 -18.565701 -1.813300 -1.834100 -5.981720 -8.355790 -0.086337 0.000000 0.000000 0.000000 -2.000000 -7.000000 0.000000 1.961020 -5.547330 -0.076121 -65.946198 10.082700 16.615400 -20.315300 -2.433160 0.253862 5.969490 -0.173112 0.175734 -6.504570 17.023300 -0.310254 67.554001 70.287201 17.513100 94.173599 -12.767100 -10.709200 5.324310 16.153700 -5.824620 -26.117903 6.307437 -0.431563 54.357811 -3.028935 -4.754738 -28.586132 1.302324 -1.347900 -25.924080 -3.448483 -0.825621 54.150429 2.757917 4.113592 -28.652725 -2.064378 -1.874906 
-0.789892 50.840069 0.814658 0.000000 0.000000 0.000000 -18.945087 -2.893926 -1.786977 -7.022180 -8.221953 -0.063056 0.000000 0.000000 0.000000 -2.125313 -7.286028 0.000000 1.968699 -5.562313 -0.076890 -64.717682 10.265336 16.820566 -20.710863 -3.851985 0.237386 5.969490 -0.173112 0.175734 -4.454050 14.003446 -0.686433 74.694916 85.931694 22.101328 81.763580 -16.443745 -11.126839 6.106876 16.464039 -6.270106 -18.458094 5.190051 0.110680 39.678188 -3.279647 -3.397757 -21.552731 1.151985 -1.021146 -18.385967 -3.910231 -0.342666 39.520031 3.114592 2.854763 -21.553894 -1.983349 -0.563058 
